<?xml version="1.0" encoding="UTF-8" standalone="no"?>
<!-- Created with Inkscape (http://www.inkscape.org/) -->

<svg
   xmlns:dc="http://purl.org/dc/elements/1.1/"
   xmlns:cc="http://creativecommons.org/ns#"
   xmlns:rdf="http://www.w3.org/1999/02/22-rdf-syntax-ns#"
   xmlns:svg="http://www.w3.org/2000/svg"
   xmlns="http://www.w3.org/2000/svg"
   xmlns:sodipodi="http://sodipodi.sourceforge.net/DTD/sodipodi-0.dtd"
   xmlns:inkscape="http://www.inkscape.org/namespaces/inkscape"
   width="524.21295mm"
   height="346.60416mm"
   viewBox="0 0 524.21295 346.60416"
   version="1.1"
   id="svg8"
   inkscape:version="0.92.4 (5da689c313, 2019-01-14)"
   sodipodi:docname="banner_yellow.svg">
  <defs
     id="defs2" />
  <sodipodi:namedview
     id="base"
     pagecolor="#ffffff"
     bordercolor="#666666"
     borderopacity="1.0"
     inkscape:pageopacity="0.0"
     inkscape:pageshadow="2"
     inkscape:zoom="0.12374369"
     inkscape:cx="1873.654"
     inkscape:cy="1381.029"
     inkscape:document-units="mm"
     inkscape:current-layer="g921"
     showgrid="false"
     inkscape:window-width="1858"
     inkscape:window-height="1057"
     inkscape:window-x="928"
     inkscape:window-y="-8"
     inkscape:window-maximized="1" />
  <metadata
     id="metadata5">
    <rdf:RDF>
      <cc:Work
         rdf:about="">
        <dc:format>image/svg+xml</dc:format>
        <dc:type
           rdf:resource="http://purl.org/dc/dcmitype/StillImage" />
        <dc:title></dc:title>
      </cc:Work>
    </rdf:RDF>
  </metadata>
  <g
     inkscape:label="Layer 1"
     inkscape:groupmode="layer"
     id="layer1"
     transform="translate(382.80393,117.07292)">
    <g
       id="g1251"
       transform="matrix(0.42790638,0,0,0.42790638,-420.22951,-153.44496)">
      <path
         id="path817"
         d="M 138.4,339.7 C 193,211.4 326.3,123.1 453.3,148.3 c 62.3,12.3 119.9,49.2 183.1,53 57.8,3.4 113.4,-21.2 168.3,-41.3 54.9,-20.1 115.1,-36.1 169.9,-15.7 64.7,24.1 108.9,101.8 100.1,176.2 -6.4,54.3 -37.4,107.7 -23.1,160.2 15.2,55.4 72.8,80.3 123.6,95.8 50.8,15.5 108.7,35.2 130,88.1 19.9,49.5 -3.5,110.4 -43.3,142.3 -39.8,31.9 -93.9,38.3 -140.9,38.3 -233.7,0 -810.5,0 -812.1,0 C 6.8,845.2 83.8,468 138.4,339.7 Z"
         class="st0"
         inkscape:connector-curvature="0"
         style="fill:#93cdce" />
      <path
         id="path819"
         d="m 585.1,421.5 c -1.2,-6.7 -9.1,-11.9 -18.7,-11.9 -3,0 -5.8,0.5 -8.3,1.4 -2.9,-11 -9.5,-18.7 -17.3,-18.7 -8,0 -14.9,8.2 -17.6,19.8 -3.1,-1.6 -6.8,-2.5 -10.9,-2.5 -3.2,0 -6.2,0.6 -8.8,1.6 -4.8,-12 -16.5,-20.5 -30.2,-20.5 -13.5,0 -25.1,8.2 -30,19.9 -3.8,-0.6 -7.9,-1 -12.2,-1 -16.5,0 -30.2,5.2 -32.3,11.9 z"
         class="st1"
         inkscape:connector-curvature="0"
         style="fill:#f4efcb" />
      <path
         id="path821"
         d="m 577.8,263.6 c 0.6,-3.5 4.8,-6.2 9.8,-6.2 1.6,0 3,0.3 4.4,0.7 1.5,-5.8 5,-9.8 9.1,-9.8 4.2,0 7.8,4.3 9.2,10.4 1.6,-0.8 3.6,-1.3 5.7,-1.3 1.7,0 3.3,0.3 4.6,0.8 2.5,-6.3 8.7,-10.8 15.9,-10.8 7.1,0 13.2,4.3 15.8,10.4 2,-0.3 4.1,-0.5 6.4,-0.5 8.7,0 15.8,2.7 16.9,6.2 h -97.8 z"
         class="st1"
         inkscape:connector-curvature="0"
         style="fill:#f4efcb" />
      <path
         id="path823"
         d="m 1305.3,664.6 c -21.4,-52.9 -79.2,-72.6 -130,-88.1 -50.8,-15.5 -108.4,-40.4 -123.6,-95.8 -3.3,-12 -4.2,-24 -3.6,-36 -21.8,3.5 -43.1,9.2 -63.2,17.4 -49.7,20.3 -97.4,54.6 -151.9,48.7 -57.6,-6.2 -95.3,-54.4 -146.3,-78.4 -59.9,-28.1 -140.6,-18 -188.9,23.6 -26.6,23 -42.9,53.1 -64.5,79.7 -21.6,26.6 -52.4,51.2 -90,53.3 -45.7,2.6 -84.5,-28.8 -109.5,-61.9 -17,-22.6 -35.8,-50 -66.9,-51.8 -19.5,-1.1 -37.4,8.9 -52,20.1 -8,6.1 -15.4,12.8 -22.2,19.8 -19.8,153 9.3,330 216.3,330 1.6,0 578.4,0 812.1,0 47,0 101.1,-6.4 140.9,-38.3 39.8,-31.9 63.2,-92.9 43.3,-142.3 z"
         class="st2"
         inkscape:connector-curvature="0"
         style="fill:#7eb7b7" />
      <path
         id="path825"
         d="m 546,372.2 c 1.4,0.3 2.8,0.6 4.2,0.9 v 259.6 h 19.5 V 377.4 c 18.3,4 36.7,8.1 55,12.1 0,-7.7 0,-12.6 0,-18.7 38.1,5.1 76.9,8.5 116,10.2 34.4,3.6 69.2,5.4 104.1,5.4 75.3,0 150.7,-8.4 221.5,-25.1 0.9,-3.5 1.8,-7 2.7,-10.6 -87.7,18.2 -181.4,27 -274.9,26.3 -61.6,-3.1 -122.6,-11.9 -180.4,-26.4 v -0.5 c 0,-2 -1.7,-3.7 -3.7,-3.7 h -3.7 c -2,0 -3.7,1.7 -3.7,3.7 v 1.8 c -8.6,2.1 -17.3,4.1 -26.1,6 -2.3,-0.4 -4.6,-0.8 -6.9,-1.2 v -21.6 c 5.9,-0.5 11.8,-1 17.6,-1.4 70.2,11.5 143.3,17.3 216.4,17.3 92.2,0 184.3,-9.1 270.5,-27.4 0.1,-1.1 0.3,-2.1 0.4,-3.2 0.1,-0.8 0.2,-1.6 0.3,-2.4 -147.3,31.4 -312.2,36 -464.6,13.9 4.8,-0.4 9.6,-0.8 14.4,-1.2 0,-10.8 0,-16.2 0,-27.1 -3.6,0.8 -7.3,1.6 -10.9,2.4 v -6.2 c 73.6,18.3 152.3,27.4 231,27.4 78.7,0 157.4,-9.2 231,-27.4 0,-2.8 -0.1,-5.5 -0.3,-8.2 -147.1,36.8 -314.7,36.8 -461.8,-0.1 v -0.1 c 0,-2 -1.7,-3.7 -3.7,-3.7 h -3.7 c -2,0 -3.7,1.7 -3.7,3.7 v 1.4 c -10.9,2.7 -21.9,5.1 -32.9,7.4 V 289.4 H 550.1 V 304 c -127.2,23.4 -265.5,21.8 -391.3,-4.7 -1.4,2.4 -2.9,4.9 -4.2,7.4 68.1,14.6 139.9,21.8 211.7,21.8 53,0 106,-4 157.5,-11.9 -0.4,0.1 -0.7,0.3 -1,0.6 -121.8,26.3 -255.9,34.3 -385.1,23.8 -0.7,1.7 -1.4,3.4 -2.2,5.2 37.4,3.1 75.2,4.6 113,4.6 93.2,0 186.3,-9.3 273.3,-28 v 3.2 c -2.4,0.5 -4.8,1.1 -7.3,1.6 0,4.7 0,7.1 0,11.8 11.8,-1 23.7,-1.9 35.5,-2.9 v 16.3 c -6.6,-1.3 -13.1,-2.6 -19.6,-4 v -1.3 c 0,-1.6 -1.3,-2.9 -2.9,-2.9 h -2.9 c -1.6,0 -2.9,1.3 -2.9,2.9 v 1.3 c -75.3,16.2 -155.3,25.4 -235.9,27.6 -52.2,-4 -103.7,-12 -152.9,-23.9 -1,2.5 -1.9,5 -2.9,7.6 27.4,6.7 55.6,12.1 84.1,16.3 -29.5,-0.7 -59,-2.4 -88.2,-5 -0.6,1.7 -1.2,3.5 -1.8,5.3 41,3.7 82.6,5.6 124.2,5.6 3.9,0 7.8,0 11.7,-0.1 35,3.6 70.5,5.3 106,5.3 61,0.3 121.6,-4.9 180,-15.3 z M 613.7,359 c 16.8,4.2 33.8,7.9 51.1,11.1 -13.5,-1.4 -26.8,-3 -40.1,-4.7 0,-0.9 0,-1.9 0,-2.9 -3.6,-0.3 -7.3,-0.6 -10.9,-0.9 V 359 Z m -11.1,1.3 v 0.3 c -0.3,0 -0.7,-0.1 -1,-0.1 0.4,0 0.7,-0.1 1,-0.2 z m -32.9,-51.7 c 11.1,-2.3 22.1,-4.7 32.9,-7.4 v 5.3 c 0,0.7 0.2,1.4 0.6,1.9 -11.2,2.5 -22.3,4.9 -33.5,7.4 z m -39.1,15.8 v -1.3 c 1,0.2 2,0.4 3,0.6 -1,0.3 -2,0.5 -3,0.7 z m 15.8,-3.5 c -5.6,-1.1 -11.2,-2.3 -16.8,-3.5 -0.5,-0.5 -1.2,-0.8 -2,-0.8 H 525 c 8.4,-1.3 16.9,-2.7 25.2,-4.2 v 7.7 c -1.3,0.3 -2.5,0.5 -3.8,0.8 z m -15.8,33.7 c 0.6,0.1 1.1,0.2 1.7,0.3 -0.6,0 -1.1,-0.1 -1.7,-0.1 z m -189.2,24.8 c 59.2,-4 117.5,-11.7 173.3,-23.3 0,3.2 0,5.5 0,9.2 3.4,0.7 6.8,1.5 10.2,2.2 -59.9,9.4 -121.9,13.4 -183.5,11.9 z"
         class="st3"
         inkscape:connector-curvature="0"
         style="fill:#589995" />
      <path
         id="path827"
         d="m 100.8,697.8 c 24,83.8 84.2,147.4 208.2,147.4 1.6,0 578.4,0 812.1,0 47,0 101.1,-6.4 140.9,-38.3 39.8,-31.9 63.2,-92.9 43.3,-142.3 C 1286.5,618 1239.5,597.2 1193.8,582.3 545.7,553.8 265,628.8 100.8,697.8 Z"
         class="st4"
         inkscape:connector-curvature="0"
         style="fill:#ded0af" />
      <path
         id="path829"
         d="m 1037.8,274.1 c -0.2,-6.4 -5.4,-11.4 -11.9,-11.4 -2.2,0 -4.3,0.6 -6.1,1.7 -5.4,-4.7 -15.9,-7.9 -28,-7.9 -10.9,0 -20.6,2.6 -26.3,6.6 -2.2,0.3 -4.3,0.7 -6.1,1.3 -1.8,-1.1 -3.9,-1.7 -6.1,-1.7 -4.7,0 -8.8,2.8 -10.7,6.8 -2.2,-7 -8.7,-12.1 -16.5,-12.1 -9.4,0 -17,7.5 -17.2,16.8 h 128.9 z"
         class="st1"
         inkscape:connector-curvature="0"
         style="fill:#f4efcb" />
      <path
         id="path831"
         d="m 113,731.5 c 29.8,66.6 89.2,113.6 196,113.6 1.6,0 578.4,0 812.1,0 47,0 101.1,-6.4 140.9,-38.3 22.7,-18.2 40.1,-45.8 47.1,-75.4 H 113 Z"
         class="st5"
         inkscape:connector-curvature="0"
         style="fill:#586775" />
      <path
         id="path833"
         d="M 1162.1,776.1 H 587 c -5.1,0 -9.2,-4.1 -9.2,-9.2 v 0 c 0,-5.1 4.1,-9.2 9.2,-9.2 h 575.1 c 5.1,0 9.2,4.1 9.2,9.2 v 0 c 0,5 -4.1,9.2 -9.2,9.2 z"
         class="st6"
         inkscape:connector-curvature="0"
         style="fill:#333e48" />
      <g
         id="g921">
	<path
   id="path835"
   d="M 1051.3,575.3 995.2,474 c -14.3,-25.8 -41.5,-41.8 -71,-41.8 H 632.4 c -29.9,0 -54.2,24.3 -54.2,54.2 v 245.2 h 383.1 10.7 214.1 v -89.1 c 0,-29.7 -24.1,-53.7 -53.7,-53.7 h -58.5 c -9.4,-0.1 -18,-5.2 -22.6,-13.5 z"
   class="st7"
   inkscape:connector-curvature="0"
   style="fill:#f5f1ea" />

	<rect
   id="rect837"
   height="299.39999"
   width="3.7"
   class="st8"
   y="432.20001"
   x="882.20001"
   style="fill:#ccc3b8" />

	<path
   id="path839"
   d="m 578.2,731.5 h 383.1 10.7 214.1 v -78.2 c 0,-0.2 0,-0.4 0,-0.6 h -608 v 78.8 z"
   class="st9"
   inkscape:connector-curvature="0"
   style="fill:#ffcc00;fill-opacity:1" />

	<path
   id="path841"
   d="m 578.2,636.2 h 383.1 10.7 214.1 v 16.4 c 0,0 0,0.1 0,0.1 h -608 v -16.5 z"
   class="st10"
   inkscape:connector-curvature="0"
   style="fill:#758393" />

	<g
   id="g847">
		<circle
   id="circle843"
   r="48"
   cy="723.09998"
   cx="685.59998"
   class="st11"
   style="fill:#4c5966" />

		<circle
   id="circle845"
   r="24.5"
   cy="723.09998"
   cx="685.59998"
   class="st12"
   style="fill:#c2c4c6" />

	</g>

	<g
   id="g853">
		<circle
   id="circle849"
   r="48"
   cy="723.09998"
   cx="1056.8"
   class="st11"
   style="fill:#4c5966" />

		<circle
   id="circle851"
   r="24.5"
   cy="723.09998"
   cx="1056.8"
   class="st12"
   style="fill:#c2c4c6" />

	</g>

	<g
   id="g859">
		<path
   id="path855"
   d="M 1184.9,708.3 H 1160 c -4.3,0 -7.9,3.5 -7.9,7.9 v 15.7 c 0,4.3 3.5,7.9 7.9,7.9 h 24.9 c 4.3,0 7.9,-3.5 7.9,-7.9 v -15.7 c 0,-4.4 -3.5,-7.9 -7.9,-7.9 z"
   class="st11"
   inkscape:connector-curvature="0"
   style="fill:#4c5966" />

		<path
   id="path857"
   d="M 1184.9,708.3 H 1160 c -4.3,0 -7.9,3.5 -7.9,7.9 v 1.8 h 40.7 v -1.8 c 0,-4.4 -3.5,-7.9 -7.9,-7.9 z"
   class="st13"
   inkscape:connector-curvature="0"
   style="fill:#657585" />

	</g>

	<g
   id="g865">
		<path
   id="path861"
   d="m 600.3,708.3 h -24.9 c -4.3,0 -7.9,3.5 -7.9,7.9 v 15.7 c 0,4.3 3.5,7.9 7.9,7.9 h 24.9 c 4.3,0 7.9,-3.5 7.9,-7.9 v -15.7 c 0,-4.4 -3.5,-7.9 -7.9,-7.9 z"
   class="st11"
   inkscape:connector-curvature="0"
   style="fill:#4c5966" />

		<path
   id="path863"
   d="m 600.3,708.3 h -24.9 c -4.3,0 -7.9,3.5 -7.9,7.9 v 1.8 h 40.7 v -1.8 c 0,-4.4 -3.5,-7.9 -7.9,-7.9 z"
   class="st13"
   inkscape:connector-curvature="0"
   style="fill:#657585" />

	</g>

	<g
   id="g875">
		<path
   id="path867"
   d="m 1041.6,580.7 -41.1,-74.2 c -7,-12.7 -20.4,-20.6 -34.9,-20.6 h -44.3 c -9.3,0 -16.9,7.6 -16.9,16.9 v 53.6 c 0,17.7 14.4,32.1 32.1,32.1 h 100.6 c 4.1,0.2 6.5,-4.2 4.5,-7.8 0,0.1 0,0 0,0 z"
   class="st14"
   inkscape:connector-curvature="0"
   style="fill:#00b7f1" />

		<g
   id="g873">
			<path
   id="path869"
   d="m 1006.9,518.1 -5.4,-9.8 -77.7,77.7 c 3.9,1.7 8.1,2.6 12.6,2.7 z"
   class="st15"
   inkscape:connector-curvature="0"
   style="fill:#5ccaeb" />

			<path
   id="path871"
   d="m 965.7,486 h -44.3 c -9.3,0 -16.9,7.6 -16.9,16.9 v 53.6 c 0,5.6 1.5,10.9 4,15.5 l 79.3,-79.3 c -6.4,-4.3 -14.1,-6.7 -22.1,-6.7 z"
   class="st15"
   inkscape:connector-curvature="0"
   style="fill:#5ccaeb" />

		</g>

	</g>

	<path
   id="path877"
   d="m 1022.8,610.3 v 0 c -5.2,0 -9.5,-4.2 -9.5,-9.5 v -19.3 c 0,-5.2 4.2,-9.5 9.5,-9.5 v 0 c 5.2,0 9.5,4.2 9.5,9.5 v 19.3 c 0,5.3 -4.3,9.5 -9.5,9.5 z"
   class="st8"
   inkscape:connector-curvature="0"
   style="fill:#ccc3b8" />

	<rect
   id="rect879"
   height="16.5"
   width="3.7"
   class="st11"
   y="636.20001"
   x="882.20001"
   style="fill:#4c5966" />

	<rect
   id="rect881"
   height="78.800003"
   width="3.7"
   class="st16"
   y="652.70001"
   x="882.20001"
   style="fill:#c67137" />

	<polygon
   id="polygon883"
   points="745,525.2 776.2,471.1 699.4,536 728.9,553.1 697.6,607.2 774.5,542.3 "
   class="st9"
   style="fill:#ffcc00;fill-opacity:1" />

	<g
   id="g905">
		<rect
   id="rect885"
   height="13"
   width="339.79999"
   class="st17"
   y="410.10001"
   x="606.29999"
   style="fill:#f16680" />

		<g
   id="g891">
			<rect
   id="rect887"
   height="15.4"
   width="14.7"
   class="st18"
   y="408.89999"
   x="946.09998"
   style="fill:#53616e" />

			<rect
   id="rect889"
   height="15.4"
   width="14.7"
   class="st18"
   y="408.89999"
   x="591.59998"
   style="fill:#53616e" />

		</g>

		<g
   id="g903">
			<circle
   id="circle893"
   r="2.9000001"
   cy="416.60001"
   cx="876"
   class="st7"
   style="fill:#f5f1ea" />

			<circle
   id="circle895"
   r="2.9000001"
   cy="416.60001"
   cx="826.09998"
   class="st7"
   style="fill:#f5f1ea" />

			<circle
   id="circle897"
   r="2.9000001"
   cy="416.60001"
   cx="776.20001"
   class="st7"
   style="fill:#f5f1ea" />

			<circle
   id="circle899"
   r="2.9000001"
   cy="416.60001"
   cx="726.29999"
   class="st7"
   style="fill:#f5f1ea" />

			<circle
   id="circle901"
   r="2.9000001"
   cy="416.60001"
   cx="676.5"
   class="st7"
   style="fill:#f5f1ea" />

		</g>

	</g>

	<g
   id="g919">
		<g
   id="g911">
			<path
   id="path907"
   d="m 856.7,405.2 h -12.3 c -2.9,0 -5.2,2.3 -5.2,5.2 v 12.3 c 0,2.9 2.3,5.2 5.2,5.2 h 12.3 c 2.9,0 5.2,-2.3 5.2,-5.2 v -12.3 c 0,-2.9 -2.3,-5.2 -5.2,-5.2 z"
   class="st8"
   inkscape:connector-curvature="0"
   style="fill:#ccc3b8" />

			<rect
   id="rect909"
   height="4.1999998"
   width="8"
   class="st10"
   y="428"
   x="846.5"
   style="fill:#758393" />

		</g>

		<g
   id="g917">
			<path
   id="path913"
   d="m 708.1,405.2 h -12.3 c -2.9,0 -5.2,2.3 -5.2,5.2 v 12.3 c 0,2.9 2.3,5.2 5.2,5.2 h 12.3 c 2.9,0 5.2,-2.3 5.2,-5.2 v -12.3 c 0,-2.9 -2.3,-5.2 -5.2,-5.2 z"
   class="st8"
   inkscape:connector-curvature="0"
   style="fill:#ccc3b8" />

			<rect
   id="rect915"
   height="4.1999998"
   width="8"
   class="st10"
   y="428"
   x="697.90002"
   style="fill:#758393" />

		</g>

	</g>

</g>
      <path
         id="path923"
         d="m 164.3,698 c -7.1,0 -13.4,3.9 -16.7,9.6 H 181 c -3.4,-5.8 -9.6,-9.6 -16.7,-9.6 z"
         class="st19"
         inkscape:connector-curvature="0"
         style="fill:#c4b595" />
      <path
         id="path925"
         d="m 1272.3,708.3 c -7.1,0 -13.4,3.9 -16.7,9.6 h 33.4 c -3.4,-5.7 -9.6,-9.6 -16.7,-9.6 z"
         class="st19"
         inkscape:connector-curvature="0"
         style="fill:#c4b595" />
      <path
         id="path927"
         d="m 1222.9,675.5 c -7.1,0 -13.4,3.9 -16.7,9.6 h 33.4 c -3.4,-5.7 -9.6,-9.6 -16.7,-9.6 z"
         class="st20"
         inkscape:connector-curvature="0"
         style="fill:#f3e8d4" />
      <path
         id="path929"
         d="m 505.1,630 c -7.1,0 -13.4,3.9 -16.7,9.6 h 33.4 c -3.4,-5.7 -9.6,-9.6 -16.7,-9.6 z"
         class="st20"
         inkscape:connector-curvature="0"
         style="fill:#f3e8d4" />
      <path
         id="path931"
         d="M 510.1,694.4 H 419 c -2.3,0 -4.2,1.9 -4.2,4.2 0,2.3 1.9,4.2 4.2,4.2 h 91.1 c 2.3,0 4.2,-1.9 4.2,-4.2 0,-2.4 -1.9,-4.2 -4.2,-4.2 z"
         class="st19"
         inkscape:connector-curvature="0"
         style="fill:#c4b595" />
      <g
         id="g1099">
	<circle
   id="circle933"
   r="33.599998"
   cy="592"
   cx="445.89999"
   class="st21"
   style="fill:#fcba81" />

	<rect
   id="rect935"
   height="259.70001"
   width="50.799999"
   class="st22"
   y="559.79999"
   x="395.10001"
   style="fill:#009cd7" />

	<g
   id="g947">
		<rect
   id="rect937"
   height="49.900002"
   width="58.700001"
   class="st23"
   y="814.20001"
   x="391.79999"
   style="fill:#d96931" />

		<path
   id="path939"
   d="m 384.5,817.2 v 0 c 0,-5.1 4.1,-9.2 9.2,-9.2 h 54.8 c 5.1,0 9.2,4.1 9.2,9.2 v 0 c 0,5.1 -4.1,9.2 -9.2,9.2 h -54.8 c -5.1,0 -9.2,-4.2 -9.2,-9.2 z"
   class="st24"
   inkscape:connector-curvature="0"
   style="fill:#d55a1f" />

		<path
   id="path941"
   d="M 490.4,895 H 391.8 V 854.4 H 464 c 14.6,0 26.4,11.8 26.4,26.4 z"
   class="st23"
   inkscape:connector-curvature="0"
   style="fill:#d96931" />

		<path
   id="path943"
   d="m 448.2,830.8 h -12.1 c -1.9,0 -3.5,1.6 -3.5,3.5 0,1.9 1.6,3.5 3.5,3.5 h 12.1 c 1.9,0 3.5,-1.6 3.5,-3.5 0,-1.9 -1.6,-3.5 -3.5,-3.5 z"
   class="st25"
   inkscape:connector-curvature="0"
   style="fill:#c0501a" />

		<path
   id="path945"
   d="m 448.2,843.6 h -12.1 c -1.9,0 -3.5,1.6 -3.5,3.5 0,1.9 1.6,3.5 3.5,3.5 h 12.1 c 1.9,0 3.5,-1.6 3.5,-3.5 0,-1.9 -1.6,-3.5 -3.5,-3.5 z"
   class="st25"
   inkscape:connector-curvature="0"
   style="fill:#c0501a" />

	</g>

	<path
   id="path949"
   d="m 448.2,606.9 c -2.4,0 -4.8,-0.4 -7.2,-1.1 -12.8,-4 -19.9,-17.5 -15.9,-30.3 16.8,-54 7.6,-125.4 -3.9,-156.6 -4.6,-12.5 1.8,-26.5 14.4,-31.1 12.6,-4.6 26.5,1.8 31.1,14.4 14.2,38.5 25,122.2 4.7,187.6 -3.3,10.4 -12.9,17.1 -23.2,17.1 z"
   class="st21"
   inkscape:connector-curvature="0"
   style="fill:#fcba81" />

	<path
   id="path951"
   d="m 455.5,491.1 c -14,0 -26.2,-10.4 -28,-24.7 -2.3,-17.9 -6.1,-35.1 -10.1,-46.1 -5.4,-14.6 2.1,-30.9 16.8,-36.2 14.6,-5.4 30.9,2.1 36.2,16.8 5.6,15.2 10.3,36 13.1,58.5 2,15.5 -9,29.6 -24.4,31.6 -1.2,0 -2.4,0.1 -3.6,0.1 z"
   class="st26"
   inkscape:connector-curvature="0"
   style="fill:#e5dfd6" />

	<rect
   id="rect953"
   height="259.70001"
   width="50.799999"
   class="st14"
   y="559.79999"
   x="324.79999"
   style="fill:#00b7f1" />

	<path
   id="path955"
   d="m 405.6,357 h -36.7 c -31.9,0 -57.8,25.9 -57.8,57.8 v 42.1 H 463.3 V 414.8 C 463.4,382.9 437.5,357 405.6,357 Z"
   class="st7"
   inkscape:connector-curvature="0"
   style="fill:#f5f1ea" />

	<path
   id="path957"
   d="m 311.1,557.4 c 0,42 34.1,76.1 76.1,76.1 v 0 c 42,0 76.1,-34.1 76.1,-76.1 V 456.9 H 311.1 Z"
   class="st14"
   inkscape:connector-curvature="0"
   style="fill:#00b7f1" />

	<rect
   id="rect959"
   height="118.7"
   width="20.299999"
   class="st14"
   y="357"
   x="360.20001"
   style="fill:#00b7f1" />

	<rect
   id="rect961"
   height="111.4"
   width="20.299999"
   class="st14"
   y="364.29999"
   x="423.60001"
   style="fill:#00b7f1" />

	<g
   id="g1015">
		<path
   id="path963"
   d="m 321.5,326.6 h -25.9 c -8.7,0 -15.8,-7.1 -15.8,-15.8 V 176.2 h 41.7 z"
   class="st27"
   inkscape:connector-curvature="0"
   style="fill:#cb6228" />

		<g
   id="g969">
			<path
   id="path965"
   d="m 498.8,236.1 h -12.9 v 52.1 h 12.9 c 14.4,0 26.1,-11.7 26.1,-26.1 v 0 c -0.1,-14.4 -11.8,-26 -26.1,-26 z"
   class="st21"
   inkscape:connector-curvature="0"
   style="fill:#fcba81" />

			<path
   id="path967"
   d="m 291.3,236.1 h 12.9 v 52.1 h -12.9 c -14.4,0 -26.1,-11.7 -26.1,-26.1 v 0 c 0.1,-14.4 11.8,-26 26.1,-26 z"
   class="st21"
   inkscape:connector-curvature="0"
   style="fill:#fcba81" />

		</g>

		<path
   id="path971"
   d="m 296.9,158.2 v 123.5 c 0,54.2 43.9,98.2 98.2,98.2 v 0 c 54.2,0 98.2,-43.9 98.2,-98.2 V 158.2 c 0,-15.7 -12.7,-28.5 -28.5,-28.5 H 325.4 c -15.8,0 -28.5,12.8 -28.5,28.5 z"
   class="st21"
   inkscape:connector-curvature="0"
   style="fill:#fcba81" />

		<path
   id="path973"
   d="m 417.6,278.5 h -6.4 l -54.1,9.5 c -1.8,0.3 -3,2 -2.7,3.8 v 0 c 2.1,12.1 13.7,20.2 25.8,18 l 34.2,-6 34.2,6 c 12.1,2.1 23.6,-5.9 25.8,-18 v 0 c 0.3,-1.8 -0.9,-3.5 -2.7,-3.8 z"
   class="st27"
   inkscape:connector-curvature="0"
   style="fill:#cb6228" />

		<path
   id="path975"
   d="m 414.4,247.5 c -8.2,0 -14.8,6.6 -14.8,14.8 v 19 c 0,8.2 6.6,14.8 14.8,14.8 8.2,0 14.8,-6.6 14.8,-14.8 v -19 c 0,-8.1 -6.6,-14.8 -14.8,-14.8 z"
   class="st28"
   inkscape:connector-curvature="0"
   style="fill:#efa973" />

		<g
   id="g981">
			<path
   id="path977"
   d="m 412.2,357 c -4.6,0 -8.4,3.8 -8.4,8.4 v 10.1 c 0,4.6 3.8,8.4 8.4,8.4 4.6,0 8.4,-3.8 8.4,-8.4 v -10.1 c 0,-4.6 -3.8,-8.4 -8.4,-8.4 z"
   class="st27"
   inkscape:connector-curvature="0"
   style="fill:#cb6228" />

			<path
   id="path979"
   d="m 412.2,384.4 c -11.6,0 -22.8,-3.4 -32.3,-10 -3.7,-2.5 -4.6,-7.5 -2.1,-11.2 2.5,-3.7 7.5,-4.6 11.2,-2.1 6.9,4.7 14.9,7.2 23.2,7.2 8.3,0 16.4,-2.5 23.2,-7.2 3.7,-2.5 8.7,-1.6 11.2,2.1 2.5,3.7 1.6,8.7 -2.1,11.2 -9.6,6.6 -20.7,10 -32.3,10 z"
   class="st27"
   inkscape:connector-curvature="0"
   style="fill:#cb6228" />

		</g>

		<g
   id="g989">
			<path
   id="path983"
   d="m 443.8,327.1 c -2.2,5 -5.7,9.4 -10,12.6 -5.4,4.1 -12.1,6.5 -19.4,6.5 -7.3,0 -14,-2.4 -19.4,-6.5 -4.3,-3.3 -7.8,-7.6 -10,-12.6 -2.4,-5.5 1.7,-11.6 7.7,-11.6 h 43.4 c 6,0 10.1,6.2 7.7,11.6 z"
   class="st29"
   inkscape:connector-curvature="0"
   style="fill:#92002d" />

			<path
   id="path985"
   d="m 436.1,315.5 h -43.4 c -5.8,0 -9.8,5.8 -7.8,11.1 H 444 c 1.9,-5.3 -2.1,-11.1 -7.9,-11.1 z"
   class="st30"
   inkscape:connector-curvature="0"
   style="fill:#fffdeb" />

			<path
   id="path987"
   d="m 433.8,339.8 c -5.4,4.1 -12.1,6.5 -19.4,6.5 -7.3,0 -14,-2.4 -19.4,-6.5 5,-4.9 11.8,-7.9 19.4,-7.9 7.6,0 14.4,3 19.4,7.9 z"
   class="st31"
   inkscape:connector-curvature="0"
   style="fill:#c40158" />

		</g>

		<path
   id="path991"
   d="m 288,176.2 v 83.9 c 0,8.2 6.7,14.9 14.9,14.9 8.2,0 14.9,-6.7 14.9,-14.9 v -83.9 z"
   class="st27"
   inkscape:connector-curvature="0"
   style="fill:#cb6228" />

		<path
   id="path993"
   d="m 492.3,190.7 v 81.1 0 c 5.5,0 9.9,-4.4 9.9,-9.9 v -71.2 z"
   class="st27"
   inkscape:connector-curvature="0"
   style="fill:#cb6228" />

		<g
   id="g1005">
			<path
   id="path995"
   d="M 373.7,175.9 H 495.3 V 161 c 0,-42 -34,-76 -76,-76 h -63.5 c -42,0 -76,34 -76,76 v 36.6 h 93.9 z"
   class="st32"
   inkscape:connector-curvature="0"
   style="fill:#00c2f3" />

			<g
   id="g1003">
				<path
   id="path997"
   d="m 383.9,192.7 c 2.1,3 5.4,4.7 8.8,4.9 h -53.5 c -3.4,-0.2 -6.7,-1.9 -8.8,-4.9 -3.7,-5.2 -2.4,-12.4 2.8,-16.1 25.7,-18.1 55.8,-27.1 86,-27.1 h 53.5 c -9,0 -17.9,0.8 -26.8,2.4 -20.9,3.8 -41.1,12 -59.2,24.7 -0.2,0.1 -0.3,0.2 -0.5,0.4 v 0 c -4.8,3.7 -5.9,10.6 -2.3,15.7 z"
   class="st22"
   inkscape:connector-curvature="0"
   style="fill:#009cd7" />

				<path
   id="path999"
   d="m 551.9,197.6 h -53.5 c -2.3,0 -4.6,-0.7 -6.6,-2.1 -14.1,-9.9 -29.7,-16.6 -45.9,-20.1 19.7,-4.3 40.2,-3.7 59.7,1.5 v 0 c 14,3.7 27.4,9.9 39.7,18.6 2,1.4 4.3,2.1 6.6,2.1 z"
   class="st22"
   inkscape:connector-curvature="0"
   style="fill:#009cd7" />

				<path
   id="path1001"
   d="m 561.4,192.7 c -2.2,3.2 -5.8,4.9 -9.5,4.9 -2.3,0 -4.6,-0.7 -6.6,-2.1 -12.3,-8.6 -25.7,-14.8 -39.7,-18.6 v 0 c -19.5,-5.2 -40,-5.7 -59.7,-1.5 v 0 c -16.2,3.5 -31.8,10.2 -45.9,20.1 -1.9,1.3 -4.1,2 -6.2,2.1 h -1.1 c -3.4,-0.2 -6.7,-1.9 -8.8,-4.9 -3.6,-5.1 -2.5,-12 2.3,-15.7 v 0 c 0.2,-0.1 0.3,-0.2 0.5,-0.4 18.1,-12.7 38.3,-20.9 59.2,-24.7 8.8,-1.6 17.8,-2.4 26.8,-2.4 30.1,0 60.3,9 86,27.1 5.1,3.6 6.4,10.9 2.7,16.1 z"
   class="st14"
   inkscape:connector-curvature="0"
   style="fill:#00b7f1" />

			</g>

		</g>

		<circle
   id="circle1007"
   r="18"
   cy="252.8"
   cx="455.70001"
   class="st33"
   style="fill:#253a49" />

		<path
   id="path1009"
   d="m 493.4,203.8 h -52.1 c -4.9,0 -8.8,4 -8.8,8.8 0,4.9 4,8.8 8.8,8.8 h 52.1 c 4.9,0 8.8,-4 8.8,-8.8 0.1,-4.9 -3.9,-8.8 -8.8,-8.8 z"
   class="st34"
   inkscape:connector-curvature="0"
   style="fill:#af4b25" />

		<circle
   id="circle1011"
   r="18"
   cy="252.8"
   cx="357"
   class="st33"
   style="fill:#253a49" />

		<path
   id="path1013"
   d="m 335.4,203.8 h 52.1 c 4.9,0 8.8,4 8.8,8.8 0,4.9 -4,8.8 -8.8,8.8 h -52.1 c -4.9,0 -8.8,-4 -8.8,-8.8 0,-4.9 4,-8.8 8.8,-8.8 z"
   class="st34"
   inkscape:connector-curvature="0"
   style="fill:#af4b25" />

	</g>

	<path
   id="path1017"
   d="m 322.9,617.9 c -2.5,0 -5,-0.7 -7.3,-2.1 l -25.3,-15.5 c -6.7,-4.1 -8.8,-12.7 -4.7,-19.4 4.1,-6.7 12.8,-8.8 19.4,-4.7 l 25.3,15.5 c 6.7,4.1 8.8,12.7 4.7,19.4 -2.7,4.4 -7.4,6.8 -12.1,6.8 z"
   class="st21"
   inkscape:connector-curvature="0"
   style="fill:#fcba81" />

	<path
   id="path1019"
   d="m 288.1,625.7 c -13.4,0 -24.2,-10.8 -24.2,-24.2 v -5.4 c 0,-90.4 0,-161.8 38.3,-213.2 8,-10.7 23.2,-12.9 33.9,-4.9 10.7,8 12.9,23.2 4.9,33.9 -28.7,38.5 -28.7,102.8 -28.7,184.3 v 5.4 c 0,13.3 -10.9,24.1 -24.2,24.1 z"
   class="st21"
   inkscape:connector-curvature="0"
   style="fill:#fcba81" />

	<g
   id="g1029">
		<path
   id="path1021"
   d="m 347.7,608.6 c -3.8,0 -6.9,3.1 -6.9,6.9 v 48.6 h 13.8 v -48.6 c 0,-3.8 -3.1,-6.9 -6.9,-6.9 z"
   class="st35"
   inkscape:connector-curvature="0"
   style="fill:#9d7590" />

		<path
   id="path1023"
   d="m 228,608.6 c -3.8,0 -6.9,3.1 -6.9,6.9 v 48.6 h 13.8 v -48.6 c 0,-3.8 -3.1,-6.9 -6.9,-6.9 z"
   class="st35"
   inkscape:connector-curvature="0"
   style="fill:#9d7590" />

		<path
   id="path1025"
   d="m 220.5,617 h 136.1 c 4.4,0 8,-3.6 8,-8 v 0 c 0,-4.4 -3.6,-8 -8,-8 H 220.5 c -4.4,0 -8,3.6 -8,8 v 0 c 0,4.4 3.6,8 8,8 z"
   class="st36"
   inkscape:connector-curvature="0"
   style="fill:#bf4d66" />

		<circle
   id="circle1027"
   r="8"
   cy="609"
   cx="356.70001"
   class="st17"
   style="fill:#f16680" />

	</g>

	<g
   id="g1059">
		<path
   id="path1031"
   d="m 249.8,685.4 c -5.4,3.1 -12.3,1.3 -15.4,-4.1 l -23.2,-40.1 c -3.1,-5.4 -1.3,-12.3 4.1,-15.4 l 19.8,-11.4 c 5.4,-3.1 12.3,-1.3 15.4,4.1 l 23.2,40.1 c 3.1,5.4 1.3,12.3 -4.1,15.4 z"
   class="st9"
   inkscape:connector-curvature="0"
   style="fill:#f89c5b" />

		<path
   id="path1033"
   d="m 237.3,618.1 -19.8,11.4 c -3.3,1.9 -4.4,6.1 -2.5,9.3 l 23.2,40.1 c 1.9,3.3 6.1,4.4 9.3,2.5 L 267.3,670 c 3.3,-1.9 4.4,-6.1 2.5,-9.3 l -23.2,-40.1 c -1.8,-3.3 -6,-4.4 -9.3,-2.5 z"
   class="st5"
   inkscape:connector-curvature="0"
   style="fill:#586775" />

		<path
   id="path1035"
   d="M 242.2,626.6 222.5,638 c -0.8,0.5 -1.1,1.5 -0.6,2.4 l 5.9,10.2 c 0.5,0.8 1.5,1.1 2.4,0.6 L 250,639.8 c 0.8,-0.5 1.1,-1.5 0.6,-2.4 l -5.9,-10.2 c -0.6,-0.8 -1.6,-1.1 -2.5,-0.6 z"
   class="st37"
   inkscape:connector-curvature="0"
   style="fill:#dce1a2" />

		<g
   id="g1047">
			<path
   id="path1037"
   d="m 234.3,644.4 -4.7,2.7 -3.8,-6.6 4.7,-2.7 z m -4.3,1.1 2.7,-1.6 -2.7,-4.6 -2.7,1.6 z"
   class="st38"
   inkscape:connector-curvature="0"
   style="fill:#a5ae51" />

			<g
   id="g1043">
				<path
   id="path1039"
   d="m 241.1,640.4 -4.7,2.7 -3.8,-6.6 4.7,-2.7 z m -4.3,1.2 2.7,-1.6 -2.7,-4.6 -2.7,1.6 z"
   class="st38"
   inkscape:connector-curvature="0"
   style="fill:#a5ae51" />

				<path
   id="path1041"
   d="m 246.5,637.3 -4.7,2.7 -3.8,-6.6 4.7,-2.7 z m -4.3,1.2 2.7,-1.6 -2.7,-4.6 -2.7,1.6 z"
   class="st38"
   inkscape:connector-curvature="0"
   style="fill:#a5ae51" />

			</g>

			<rect
   id="rect1045"
   height="1.1"
   width="1.1"
   class="st38"
   transform="matrix(0.866,-0.5,0.5,0.866,-290.0741,203.6656)"
   y="642.59998"
   x="234.5"
   style="fill:#a5ae51" />

		</g>

		<circle
   id="ellipse1049"
   cy="658.70001"
   cx="247.60001"
   class="st39"
   transform="matrix(0.866,-0.5,0.5,0.866,-296.1913,212.0528)"
   r="11"
   style="fill:#3b4752" />

		<g
   id="g1055">
			<path
   id="path1051"
   d="m 247.7,647.8 c -0.6,3.3 -0.1,6.8 1.7,9.9 1.8,3.1 4.6,5.3 7.7,6.4 1.8,-3.3 1.9,-7.4 -0.1,-10.8 -1.9,-3.5 -5.5,-5.5 -9.3,-5.5 z"
   class="st11"
   inkscape:connector-curvature="0"
   style="fill:#4c5966" />

			<path
   id="path1053"
   d="m 238.1,664.2 c 2,3.5 5.6,5.4 9.4,5.5 0.6,-3.3 0.1,-6.8 -1.7,-9.9 -1.8,-3.1 -4.6,-5.3 -7.7,-6.4 -1.9,3.2 -2,7.3 0,10.8 z"
   class="st11"
   inkscape:connector-curvature="0"
   style="fill:#4c5966" />

		</g>

		<path
   id="path1057"
   d="m 244.5,653.3 v 0 c -0.5,0.3 -1.2,0.1 -1.5,-0.4 l -0.5,-0.9 c -0.3,-0.5 -0.1,-1.2 0.4,-1.5 v 0 c 0.5,-0.3 1.2,-0.1 1.5,0.4 l 0.5,0.9 c 0.3,0.5 0.1,1.2 -0.4,1.5 z"
   class="st17"
   inkscape:connector-curvature="0"
   style="fill:#f16680" />

	</g>

	<path
   id="path1061"
   d="m 292.3,500.6 c -1.4,0 -2.8,-0.1 -4.2,-0.3 -15.4,-2.3 -26.1,-16.7 -23.8,-32.1 5.2,-35.3 16.2,-63.2 34.6,-87.8 9.3,-12.5 27,-15.1 39.5,-5.8 12.5,9.3 15.1,27 5.8,39.5 -12.7,17.1 -20.1,36.3 -24,62.4 -2.1,14.1 -14.2,24.1 -27.9,24.1 z"
   class="st26"
   inkscape:connector-curvature="0"
   style="fill:#e5dfd6" />

	<path
   id="path1063"
   d="m 374.9,469 v 13.6 c 0,15.2 12.3,27.4 27.4,27.4 h 4 c 15.2,0 27.4,-12.3 27.4,-27.4 V 469 Z"
   class="st22"
   inkscape:connector-curvature="0"
   style="fill:#009cd7" />

	<circle
   id="circle1065"
   r="33.599998"
   cy="604.20001"
   cx="288.10001"
   class="st21"
   style="fill:#fcba81" />

	<g
   id="g1077">
		<polygon
   id="polygon1067"
   points="342.2,599.5 342.4,604.5 351.3,609.6 355.7,607.3 359.7,595.1 350.8,590 "
   class="st40"
   style="fill:#faf6db" />

		<rect
   id="rect1069"
   height="10.2"
   width="23.1"
   class="st40"
   transform="matrix(0.5,-0.866,0.866,0.5,-363.83,603.9024)"
   y="611.90002"
   x="329.5"
   style="fill:#faf6db" />

		<polygon
   id="polygon1071"
   points="328.7,655.2 338.7,634.3 327.3,627.7 314.2,646.8 "
   class="st41"
   style="fill:#ffd54c" />

		<path
   id="path1073"
   d="m 336.5,638.3 -11.6,-6.7 c -2.2,-1.3 -2.9,-4.1 -1.7,-6.2 v 0 c 1.3,-2.2 4.1,-2.9 6.2,-1.7 l 11.6,6.7 c 2.2,1.3 2.9,4.1 1.7,6.2 v 0 c -1.2,2.2 -4,3 -6.2,1.7 z"
   class="st41"
   inkscape:connector-curvature="0"
   style="fill:#ffd54c" />

		<path
   id="path1075"
   d="m 331.6,647.8 -12.4,-7.1 c -2,-1.1 -4.5,-0.5 -5.7,1.5 l -18.9,32.7 c -1.1,2 -0.5,4.5 1.5,5.7 l 12.4,7.1 c 2,1.1 4.5,0.5 5.7,-1.5 l 18.9,-32.7 c 1.1,-2 0.4,-4.6 -1.5,-5.7 z"
   class="st18"
   inkscape:connector-curvature="0"
   style="fill:#53616e" />

	</g>

	<g
   id="g1085">
		<path
   id="path1079"
   d="m 210.1,656.7 v 53 c 0,8.9 7.2,16.1 16.1,16.1 h 26.1 c 8.9,0 16.1,-7.2 16.1,-16.1 v -53 z"
   class="st36"
   inkscape:connector-curvature="0"
   style="fill:#bf4d66" />

		<rect
   id="rect1081"
   height="69.099998"
   width="133.10001"
   class="st36"
   y="656.70001"
   x="228"
   style="fill:#bf4d66" />

		<path
   id="path1083"
   d="m 318.5,656.7 v 53 c 0,8.9 7.2,16.1 16.1,16.1 h 26.1 c 8.9,0 16.1,-7.2 16.1,-16.1 v -53 z"
   class="st17"
   inkscape:connector-curvature="0"
   style="fill:#f16680" />

	</g>

	<g
   id="g1097">
		<rect
   id="rect1087"
   height="49.900002"
   width="58.700001"
   class="st42"
   y="814.20001"
   x="321.79999"
   style="fill:#de7942" />

		<path
   id="path1089"
   d="m 314.5,817.2 v 0 c 0,-5.1 4.1,-9.2 9.2,-9.2 h 54.8 c 5.1,0 9.2,4.1 9.2,9.2 v 0 c 0,5.1 -4.1,9.2 -9.2,9.2 h -54.8 c -5,0 -9.2,-4.2 -9.2,-9.2 z"
   class="st23"
   inkscape:connector-curvature="0"
   style="fill:#d96931" />

		<path
   id="path1091"
   d="m 420.5,895 h -98.6 v -40.6 h 72.2 c 14.6,0 26.4,11.8 26.4,26.4 z"
   class="st42"
   inkscape:connector-curvature="0"
   style="fill:#de7942" />

		<path
   id="path1093"
   d="m 378.3,830.8 h -12.1 c -1.9,0 -3.5,1.6 -3.5,3.5 0,1.9 1.6,3.5 3.5,3.5 h 12.1 c 1.9,0 3.5,-1.6 3.5,-3.5 0,-1.9 -1.6,-3.5 -3.5,-3.5 z"
   class="st25"
   inkscape:connector-curvature="0"
   style="fill:#c0501a" />

		<path
   id="path1095"
   d="m 378.3,843.6 h -12.1 c -1.9,0 -3.5,1.6 -3.5,3.5 0,1.9 1.6,3.5 3.5,3.5 h 12.1 c 1.9,0 3.5,-1.6 3.5,-3.5 0,-1.9 -1.6,-3.5 -3.5,-3.5 z"
   class="st25"
   inkscape:connector-curvature="0"
   style="fill:#c0501a" />

	</g>

</g>
    </g>
  </g>
  <style
     id="style815"
     type="text/css">
	.st0{fill:#93CDCE;}
	.st1{fill:#F4EFCB;}
	.st2{fill:#7EB7B7;}
	.st3{fill:#589995;}
	.st4{fill:#DED0AF;}
	.st5{fill:#586775;}
	.st6{fill:#333E48;}
	.st7{fill:#F5F1EA;}
	.st8{fill:#CCC3B8;}
	.st9{fill:#F89C5B;}
	.st10{fill:#758393;}
	.st11{fill:#4C5966;}
	.st12{fill:#C2C4C6;}
	.st13{fill:#657585;}
	.st14{fill:#00B7F1;}
	.st15{fill:#5CCAEB;}
	.st16{fill:#C67137;}
	.st17{fill:#F16680;}
	.st18{fill:#53616E;}
	.st19{fill:#C4B595;}
	.st20{fill:#F3E8D4;}
	.st21{fill:#FCBA81;}
	.st22{fill:#009CD7;}
	.st23{fill:#D96931;}
	.st24{fill:#D55A1F;}
	.st25{fill:#C0501A;}
	.st26{fill:#E5DFD6;}
	.st27{fill:#CB6228;}
	.st28{fill:#EFA973;}
	.st29{fill:#92002D;}
	.st30{fill:#FFFDEB;}
	.st31{fill:#C40158;}
	.st32{fill:#00C2F3;}
	.st33{fill:#253A49;}
	.st34{fill:#AF4B25;}
	.st35{fill:#9D7590;}
	.st36{fill:#BF4D66;}
	.st37{fill:#DCE1A2;}
	.st38{fill:#A5AE51;}
	.st39{fill:#3B4752;}
	.st40{fill:#FAF6DB;}
	.st41{fill:#FFD54C;}
	.st42{fill:#DE7942;}
</style>
</svg>
