<?xml version="1.0" encoding="UTF-8" standalone="no"?>
<!-- Created with Inkscape (http://www.inkscape.org/) -->

<svg
   xmlns:dc="http://purl.org/dc/elements/1.1/"
   xmlns:cc="http://creativecommons.org/ns#"
   xmlns:rdf="http://www.w3.org/1999/02/22-rdf-syntax-ns#"
   xmlns:svg="http://www.w3.org/2000/svg"
   xmlns="http://www.w3.org/2000/svg"
   xmlns:sodipodi="http://sodipodi.sourceforge.net/DTD/sodipodi-0.dtd"
   xmlns:inkscape="http://www.inkscape.org/namespaces/inkscape"
   width="119.74358mm"
   height="119.74327mm"
   viewBox="0 0 119.74358 119.74327"
   version="1.1"
   id="svg8"
   inkscape:version="0.92.4 (f8dce91, 2019-08-02)"
   sodipodi:docname="call-gray.svg">
  <defs
     id="defs2" />
  <sodipodi:namedview
     id="base"
     pagecolor="#ffffff"
     bordercolor="#666666"
     borderopacity="1.0"
     inkscape:pageopacity="0.0"
     inkscape:pageshadow="2"
     inkscape:zoom="0.35"
     inkscape:cx="1532.0005"
     inkscape:cy="-445.14128"
     inkscape:document-units="mm"
     inkscape:current-layer="layer1"
     showgrid="false"
     inkscape:window-width="1806"
     inkscape:window-height="1275"
     inkscape:window-x="1422"
     inkscape:window-y="301"
     inkscape:window-maximized="0" />
  <metadata
     id="metadata5">
    <rdf:RDF>
      <cc:Work
         rdf:about="">
        <dc:format>image/svg+xml</dc:format>
        <dc:type
           rdf:resource="http://purl.org/dc/dcmitype/StillImage" />
        <dc:title></dc:title>
      </cc:Work>
    </rdf:RDF>
  </metadata>
  <g
     inkscape:label="Layer 1"
     inkscape:groupmode="layer"
     id="layer1"
     transform="translate(299.50847,88.686904)">
    <g
       id="g3774"
       transform="matrix(0.31183144,0,0,0.31183144,-299.50847,-88.686904)"
       style="fill:#f9f9f9">
      <g
         id="g3717"
         style="fill:#f9f9f9">
	<g
   id="g3715"
   style="fill:#f9f9f9">
		<path
   id="path3713"
   d="m 353.188,252.052 c -23.51,0 -46.594,-3.677 -68.469,-10.906 -10.906,-3.719 -23.323,-0.833 -30.438,6.417 l -43.177,32.594 C 161.031,253.428 130.187,222.594 103.823,172.897 l 31.635,-42.052 c 8.219,-8.208 11.167,-20.198 7.635,-31.448 C 135.833,77.407 132.145,54.334 132.145,30.814 132.146,13.823 118.323,0 101.333,0 H 30.812 C 13.823,0 0,13.823 0,30.812 0,225.563 158.438,384 353.188,384 c 16.99,0 30.813,-13.823 30.813,-30.813 V 282.864 C 384,265.875 370.177,252.052 353.188,252.052 Z m 9.479,101.136 c 0,5.229 -4.25,9.479 -9.479,9.479 -182.99,0 -331.854,-148.865 -331.854,-331.854 0,-5.229 4.25,-9.479 9.479,-9.479 h 70.521 c 5.229,0 9.479,4.25 9.479,9.479 0,25.802 4.052,51.125 11.979,75.115 1.104,3.542 0.208,7.208 -3.375,10.938 L 82.75,165.427 c -2.458,3.26 -2.844,7.625 -1,11.26 29.927,58.823 66.292,95.188 125.531,125.542 3.604,1.885 8.021,1.49 11.292,-0.979 l 49.677,-37.635 c 2.51,-2.51 6.271,-3.406 9.667,-2.25 24.156,7.979 49.479,12.021 75.271,12.021 5.229,0 9.479,4.25 9.479,9.479 z"
   inkscape:connector-curvature="0"
   style="fill:#f9f9f9" />

	</g>

</g>
      <g
         id="g3719"
         style="fill:#f9f9f9">
</g>
      <g
         id="g3721"
         style="fill:#f9f9f9">
</g>
      <g
         id="g3723"
         style="fill:#f9f9f9">
</g>
      <g
         id="g3725"
         style="fill:#f9f9f9">
</g>
      <g
         id="g3727"
         style="fill:#f9f9f9">
</g>
      <g
         id="g3729"
         style="fill:#f9f9f9">
</g>
      <g
         id="g3731"
         style="fill:#f9f9f9">
</g>
      <g
         id="g3733"
         style="fill:#f9f9f9">
</g>
      <g
         id="g3735"
         style="fill:#f9f9f9">
</g>
      <g
         id="g3737"
         style="fill:#f9f9f9">
</g>
      <g
         id="g3739"
         style="fill:#f9f9f9">
</g>
      <g
         id="g3741"
         style="fill:#f9f9f9">
</g>
      <g
         id="g3743"
         style="fill:#f9f9f9">
</g>
      <g
         id="g3745"
         style="fill:#f9f9f9">
</g>
      <g
         id="g3747"
         style="fill:#f9f9f9">
</g>
    </g>
  </g>
</svg>
