<?xml version="1.0" encoding="UTF-8" standalone="no"?>
<!-- Created with Inkscape (http://www.inkscape.org/) -->

<svg
   xmlns:dc="http://purl.org/dc/elements/1.1/"
   xmlns:cc="http://creativecommons.org/ns#"
   xmlns:rdf="http://www.w3.org/1999/02/22-rdf-syntax-ns#"
   xmlns:svg="http://www.w3.org/2000/svg"
   xmlns="http://www.w3.org/2000/svg"
   xmlns:sodipodi="http://sodipodi.sourceforge.net/DTD/sodipodi-0.dtd"
   xmlns:inkscape="http://www.inkscape.org/namespaces/inkscape"
   width="255.47704mm"
   height="251.91212mm"
   viewBox="0 0 255.47704 251.91212"
   version="1.1"
   id="svg1891"
   inkscape:version="0.92.4 (5da689c313, 2019-01-14)"
   sodipodi:docname="week_call.svg">
  <defs
     id="defs1885" />
  <sodipodi:namedview
     id="base"
     pagecolor="#ffffff"
     bordercolor="#666666"
     borderopacity="1.0"
     inkscape:pageopacity="0.0"
     inkscape:pageshadow="2"
     inkscape:zoom="0.35"
     inkscape:cx="782.69095"
     inkscape:cy="629.73943"
     inkscape:document-units="mm"
     inkscape:current-layer="layer1"
     showgrid="false"
     inkscape:window-width="1796"
     inkscape:window-height="1057"
     inkscape:window-x="-8"
     inkscape:window-y="1072"
     inkscape:window-maximized="1" />
  <metadata
     id="metadata1888">
    <rdf:RDF>
      <cc:Work
         rdf:about="">
        <dc:format>image/svg+xml</dc:format>
        <dc:type
           rdf:resource="http://purl.org/dc/dcmitype/StillImage" />
        <dc:title></dc:title>
      </cc:Work>
    </rdf:RDF>
  </metadata>
  <g
     inkscape:label="Layer 1"
     inkscape:groupmode="layer"
     id="layer1"
     style="display:inline"
     transform="translate(550.65067,-141.4213)">
    <g
       id="g2596"
       transform="matrix(4.8593284,0,0,4.8593284,-435.6714,141.4213)">
      <g
         id="g2527">
	<path
   id="path2499"
   d="m 21.706,6.146 c 1.116,0 2.02,-0.898 2.02,-2.016 V 2.02 C 23.726,0.901 22.823,0 21.706,0 20.589,0 19.687,0.9 19.687,2.02 v 2.111 c 10e-4,1.117 0.903,2.015 2.019,2.015 z"
   style="fill:#030104"
   inkscape:connector-curvature="0" />

	<path
   id="path2501"
   d="m 28.882,3.494 h -4.066 v 1.027 c 0,1.695 -1.377,3.076 -3.075,3.076 -1.7,0 -3.074,-1.381 -3.074,-3.076 V 3.494 h -8.205 v 1.027 c 0,1.695 -1.379,3.076 -3.076,3.076 -1.697,0 -3.075,-1.38 -3.075,-3.076 V 3.494 L 0.208,3.443 V 29.121 H 2.26 26.864 l 2.049,-0.006 z m -2.02,23.582 H 2.26 V 10.672 h 24.604 v 16.404 z"
   style="fill:#030104"
   inkscape:connector-curvature="0" />

	<path
   id="path2503"
   d="M 7.354,6.146 C 8.47,6.146 9.375,5.248 9.375,4.13 V 2.02 C 9.375,0.9 8.47,0 7.354,0 6.238,0 5.336,0.9 5.336,2.02 v 2.111 c 0,1.117 0.901,2.015 2.018,2.015 z"
   style="fill:#030104"
   inkscape:connector-curvature="0" />

	<rect
   id="rect2505"
   height="2.852"
   width="3.2309999"
   style="fill:#030104"
   y="12.873"
   x="10.468" />

	<rect
   id="rect2507"
   height="2.852"
   width="3.234"
   style="fill:#030104"
   y="12.873"
   x="15.692" />

	<rect
   id="rect2509"
   height="2.852"
   width="3.2309999"
   style="fill:#030104"
   y="12.873"
   x="20.537001" />

	<rect
   id="rect2511"
   height="2.8499999"
   width="3.2309999"
   style="fill:#030104"
   y="17.608999"
   x="10.468" />

	<rect
   id="rect2513"
   height="2.8499999"
   width="3.234"
   style="fill:#030104"
   y="17.608999"
   x="15.692" />

	<rect
   id="rect2515"
   height="2.8499999"
   width="3.2309999"
   style="fill:#030104"
   y="17.608999"
   x="20.537001" />

	<rect
   id="rect2517"
   height="2.8499999"
   width="3.2309999"
   style="fill:#030104"
   y="22.438999"
   x="10.468" />

	<rect
   id="rect2519"
   height="2.8499999"
   width="3.2290001"
   style="fill:#030104"
   y="17.608999"
   x="5.336" />

	<rect
   id="rect2521"
   height="2.8499999"
   width="3.2290001"
   style="fill:#030104"
   y="22.438999"
   x="5.336" />

	<rect
   id="rect2523"
   height="2.8499999"
   width="3.234"
   style="fill:#030104"
   y="22.438999"
   x="15.692" />

	<rect
   id="rect2525"
   height="2.8499999"
   width="3.2309999"
   style="fill:#030104"
   y="22.438999"
   x="20.537001" />

</g>
      <g
         id="g2529">
</g>
      <g
         id="g2531">
</g>
      <g
         id="g2533">
</g>
      <g
         id="g2535">
</g>
      <g
         id="g2537">
</g>
      <g
         id="g2539">
</g>
      <g
         id="g2541">
</g>
      <g
         id="g2543">
</g>
      <g
         id="g2545">
</g>
      <g
         id="g2547">
</g>
      <g
         id="g2549">
</g>
      <g
         id="g2551">
</g>
      <g
         id="g2553">
</g>
      <g
         id="g2555">
</g>
      <g
         id="g2557">
</g>
    </g>
    <g
       id="g2497"
       transform="matrix(0.51459883,0,0,0.51459883,-550.65067,195.72747)">
      <g
         id="g2440">
	<g
   id="g2438">
		<path
   id="path2436"
   d="m 353.188,252.052 c -23.51,0 -46.594,-3.677 -68.469,-10.906 -10.906,-3.719 -23.323,-0.833 -30.438,6.417 l -43.177,32.594 C 161.031,253.428 130.187,222.594 103.823,172.897 l 31.635,-42.052 c 8.219,-8.208 11.167,-20.198 7.635,-31.448 C 135.833,77.407 132.145,54.334 132.145,30.814 132.146,13.823 118.323,0 101.333,0 H 30.812 C 13.823,0 0,13.823 0,30.812 0,225.563 158.438,384 353.188,384 c 16.99,0 30.813,-13.823 30.813,-30.813 V 282.864 C 384,265.875 370.177,252.052 353.188,252.052 Z m 9.479,101.136 c 0,5.229 -4.25,9.479 -9.479,9.479 -182.99,0 -331.854,-148.865 -331.854,-331.854 0,-5.229 4.25,-9.479 9.479,-9.479 h 70.521 c 5.229,0 9.479,4.25 9.479,9.479 0,25.802 4.052,51.125 11.979,75.115 1.104,3.542 0.208,7.208 -3.375,10.938 L 82.75,165.427 c -2.458,3.26 -2.844,7.625 -1,11.26 29.927,58.823 66.292,95.188 125.531,125.542 3.604,1.885 8.021,1.49 11.292,-0.979 l 49.677,-37.635 c 2.51,-2.51 6.271,-3.406 9.667,-2.25 24.156,7.979 49.479,12.021 75.271,12.021 5.229,0 9.479,4.25 9.479,9.479 z"
   inkscape:connector-curvature="0" />

	</g>

</g>
      <g
         id="g2442">
</g>
      <g
         id="g2444">
</g>
      <g
         id="g2446">
</g>
      <g
         id="g2448">
</g>
      <g
         id="g2450">
</g>
      <g
         id="g2452">
</g>
      <g
         id="g2454">
</g>
      <g
         id="g2456">
</g>
      <g
         id="g2458">
</g>
      <g
         id="g2460">
</g>
      <g
         id="g2462">
</g>
      <g
         id="g2464">
</g>
      <g
         id="g2466">
</g>
      <g
         id="g2468">
</g>
      <g
         id="g2470">
</g>
    </g>
  </g>
</svg>
